<svg xmlns="http://www.w3.org/2000/svg" width="24" height="25" fill="none" viewBox="0 0 24 25">
  <g clip-path="url(#a)">
    <path fill="#FDF8F2" d="M24 12.9c0-6.628-5.373-12-12-12S0 6.272 0 12.9c0 5.99 4.388 10.954 10.125 11.854V16.37H7.078V12.9h3.047v-2.643c0-3.007 1.792-4.669 4.533-4.669 1.312 0 2.686.235 2.686.235v2.953H15.83c-1.491 0-1.956.925-1.956 1.875v2.25h3.328l-.532 3.469h-2.796v8.385C19.612 23.854 24 18.89 24 12.9Z"/>
  </g>
  <defs>
    <clipPath id="a">
      <path fill="#fff" d="M0 0h24v24H0z" transform="translate(0 .9)"/>
    </clipPath>
  </defs>
</svg>
