<svg xmlns="http://www.w3.org/2000/svg" width="24" height="25" fill="none" viewBox="0 0 24 25">
  <g clip-path="url(#a)">
    <path fill="#FDF8F2" d="M22.223.9H1.772C.792.9 0 1.673 0 2.63v20.536c0 .956.792 1.734 1.772 1.734h20.451c.98 0 1.777-.778 1.777-1.73V2.63C24 1.673 23.203.9 22.223.9ZM7.12 21.35H3.558V9.896H7.12v11.457ZM5.34 8.335a2.064 2.064 0 1 1 0-4.125 2.063 2.063 0 0 1 0 4.125Zm15.112 13.018h-3.558v-5.57c0-1.326-.024-3.037-1.852-3.037-1.851 0-2.133 1.449-2.133 2.944v5.663H9.356V9.895h3.413v1.566h.047c.473-.9 1.636-1.852 3.365-1.852 3.605 0 4.27 2.372 4.27 5.457v6.286Z"/>
  </g>
  <defs>
    <clipPath id="a">
      <path fill="#fff" d="M0 0h24v24H0z" transform="translate(0 .9)"/>
    </clipPath>
  </defs>
</svg>
