<svg xmlns="http://www.w3.org/2000/svg" width="32" height="33" fill="none" viewBox="0 0 32 33">
  <path stroke="#007CC2" stroke-linecap="round" stroke-linejoin="round" stroke-width="2" d="M12.667 9.337a3.747 3.747 0 0 1 7.282 1.25c0 2.497-3.748 3.746-3.748 3.746m.049 5h.017M7.667 26v3.892c0 .889 0 1.333.182 1.56a.833.833 0 0 0 .652.314c.292 0 .638-.278 1.332-.832l3.976-3.18c.812-.65 1.218-.976 1.67-1.207a5.004 5.004 0 0 1 1.27-.445C17.246 26 17.766 26 18.806 26H23c2.8 0 4.2 0 5.27-.545a5 5 0 0 0 2.185-2.185C31 22.2 31 20.8 31 18V9c0-2.8 0-4.2-.545-5.27a5 5 0 0 0-2.185-2.185C27.2 1 25.8 1 23 1H9c-2.8 0-4.2 0-5.27.545A5 5 0 0 0 1.545 3.73C1 4.8 1 6.2 1 9v10.333c0 1.55 0 2.325.17 2.961a5 5 0 0 0 3.536 3.536c.636.17 1.41.17 2.96.17Z"/>
</svg>
