<svg xmlns="http://www.w3.org/2000/svg" width="24" height="20" fill="none" viewBox="0 0 24 20">
  <path fill="#FDF8F2" d="M7.55 19.65c9.055 0 14.008-7.503 14.008-14.008 0-.21-.004-.427-.014-.637A10 10 0 0 0 24 2.455c-.898.4-1.85.66-2.826.774A4.95 4.95 0 0 0 23.339.506 9.898 9.898 0 0 1 20.213 1.7a4.93 4.93 0 0 0-8.394 4.49A13.985 13.985 0 0 1 1.673 1.05a4.93 4.93 0 0 0 1.523 6.57 4.93 4.93 0 0 1-2.23-.614v.061a4.922 4.922 0 0 0 3.95 4.828 4.894 4.894 0 0 1-2.221.085 4.934 4.934 0 0 0 4.597 3.42A9.875 9.875 0 0 1 0 17.44a13.969 13.969 0 0 0 7.55 2.211Z"/>
</svg>
