<svg xmlns="http://www.w3.org/2000/svg" width="24" height="25" fill="none" viewBox="0 0 24 25">
  <g clip-path="url(#a)">
    <path fill="#FDF8F2" fill-rule="evenodd" d="M12 .9C5.372.9 0 6.28 0 12.92a12.02 12.02 0 0 0 8.207 11.405c.6.11.818-.26.818-.58 0-.284-.01-1.041-.015-2.043-3.339.726-4.043-1.612-4.043-1.612-.545-1.39-1.332-1.759-1.332-1.759-1.09-.744.083-.73.083-.73 1.203.085 1.837 1.239 1.837 1.239 1.07 1.836 2.809 1.305 3.492.998.11-.776.42-1.305.763-1.605-2.664-.304-5.466-1.336-5.466-5.942 0-1.311.468-2.385 1.235-3.225-.124-.304-.535-1.527.117-3.18 0 0 1.008-.324 3.3 1.231A11.477 11.477 0 0 1 12 6.713c1.02.005 2.046.138 3.005.404 2.29-1.555 3.296-1.232 3.296-1.232.655 1.655.243 2.877.12 3.18.768.84 1.234 1.915 1.234 3.226 0 4.618-2.807 5.634-5.48 5.932.431.37.814 1.104.814 2.226 0 1.606-.014 2.903-.014 3.296 0 .322.216.697.825.579A12.023 12.023 0 0 0 24 12.92C24 6.28 18.626.9 12 .9Z" clip-rule="evenodd"/>
  </g>
  <defs>
    <clipPath id="a">
      <path fill="#fff" d="M0 0h24v24H0z" transform="translate(0 .9)"/>
    </clipPath>
  </defs>
</svg>
